HIERARCHY
ROOT hip
{
  OFFSET 0 0 0
  CHANNELS 6 Xposition Yposition Zposition Zrotation Yrotation Xrotation
  JOINT abdomen
  {
    OFFSET 0 20.6881 -0.73152
    CHANNELS 3 Zrotation Xrotation Yrotation
    JOINT chest
    {
      OFFSET 0 11.7043 -0.48768
      CHANNELS 3 Zrotation Xrotation Yrotation
      JOINT neck
      {
        OFFSET 0 22.1894 -2.19456
        CHANNELS 3 Zrotation Xrotation Yrotation
        JOINT head
        {
          OFFSET -0.24384 7.07133 1.2192
          CHANNELS 3 Zrotation Xrotation Yrotation
          JOINT leftEye
          {
            OFFSET 4.14528 8.04674 8.04672
            CHANNELS 3 Zrotation Xrotation Yrotation
            End Site
            {
              OFFSET 1 0 0
            }
          }
          JOINT rightEye
          {
            OFFSET -3.6576 8.04674 8.04672
            CHANNELS 3 Zrotation Xrotation Yrotation
            End Site
            {
              OFFSET 1 0 0
            }
          }
        }
      }
      JOINT rCollar
      {
        OFFSET -2.68224 19.2634 -4.8768
        CHANNELS 3 Zrotation Xrotation Yrotation
        JOINT rShldr
        {
          OFFSET -8.77824 -1.95073 1.46304
          CHANNELS 3 Zrotation Xrotation Yrotation
          JOINT rForeArm
          {
            OFFSET -28.1742 -1.7115 0.48768
            CHANNELS 3 Zrotation Xrotation Yrotation
            JOINT rHand
            {
              OFFSET -22.5879 0.773209 7.07136
              CHANNELS 3 Zrotation Xrotation Yrotation
              JOINT rThumb1
              {
                OFFSET -1.2192 -0.487915 3.41376
                CHANNELS 3 Zrotation Xrotation Yrotation
                JOINT rThumb2
                {
                  OFFSET -3.37035 -0.52449 3.41376
                  CHANNELS 3 Zrotation Xrotation Yrotation
                  End Site
                  {
                    OFFSET -1.78271 -1.18214 1.43049
                  }
                }
              }
              JOINT rIndex1
              {
                OFFSET -7.75947 0.938293 5.60832
                CHANNELS 3 Zrotation Xrotation Yrotation
                JOINT rIndex2
                {
                  OFFSET -2.54057 -0.884171 1.56538
                  CHANNELS 3 Zrotation Xrotation Yrotation
                  End Site
                  {
                    OFFSET -1.62519 -0.234802 1.16502
                  }
                }
              }
              JOINT rMid1
              {
                OFFSET -8.24714 1.18213 3.41376
                CHANNELS 3 Zrotation Xrotation Yrotation
                JOINT rMid2
                {
                  OFFSET -3.10165 -0.590103 1.0647
                  CHANNELS 3 Zrotation Xrotation Yrotation
                  End Site
                  {
                    OFFSET -2.48547 -0.328903 0.83742
                  }
                }
              }
              JOINT rRing1
              {
                OFFSET -8.82822 0.546677 1.51678
                CHANNELS 3 Zrotation Xrotation Yrotation
                JOINT rRing2
                {
                  OFFSET -2.60934 -0.819778 -0.0198488
                  CHANNELS 3 Zrotation Xrotation Yrotation
                  End Site
                  {
                    OFFSET -2.33842 -0.294052 0.168128
                  }
                }
              }
              JOINT rPinky1
              {
                OFFSET -8.27202 -0.0477905 -0.4584
                CHANNELS 3 Zrotation Xrotation Yrotation
                JOINT rPinky2
                {
                  OFFSET -1.82734 -0.647385 -0.700984
                  CHANNELS 3 Zrotation Xrotation Yrotation
                  End Site
                  {
                    OFFSET -1.69225 -0.51767 -0.607171
                  }
                }
              }
            }
          }
        }
      }
      JOINT lCollar
      {
        OFFSET 2.68224 19.2634 -4.8768
        CHANNELS 3 Zrotation Xrotation Yrotation
        JOINT lShldr
        {
          OFFSET 8.77824 -1.95073 1.46304
          CHANNELS 3 Zrotation Xrotation Yrotation
          JOINT lForeArm
          {
            OFFSET 28.1742 -1.7115 0.48768
            CHANNELS 3 Zrotation Xrotation Yrotation
            JOINT lHand
            {
              OFFSET 22.5879 0.773209 7.07136
              CHANNELS 3 Zrotation Xrotation Yrotation
              JOINT lThumb1
              {
                OFFSET 1.2192 -0.487915 3.41376
                CHANNELS 3 Zrotation Xrotation Yrotation
                JOINT lThumb2
                {
                  OFFSET 3.37035 -0.52449 3.41376
                  CHANNELS 3 Zrotation Xrotation Yrotation
                  End Site
                  {
                    OFFSET 1.78271 -1.18214 1.43049
                  }
                }
              }
              JOINT lIndex1
              {
                OFFSET 7.75947 0.938293 5.60832
                CHANNELS 3 Zrotation Xrotation Yrotation
                JOINT lIndex2
                {
                  OFFSET 2.54057 -0.884171 1.56538
                  CHANNELS 3 Zrotation Xrotation Yrotation
                  End Site
                  {
                    OFFSET 1.62519 -0.234802 1.16502
                  }
                }
              }
              JOINT lMid1
              {
                OFFSET 8.24714 1.18213 3.41376
                CHANNELS 3 Zrotation Xrotation Yrotation
                JOINT lMid2
                {
                  OFFSET 3.10165 -0.590103 1.0647
                  CHANNELS 3 Zrotation Xrotation Yrotation
                  End Site
                  {
                    OFFSET 2.48547 -0.328903 0.83742
                  }
                }
              }
              JOINT lRing1
              {
                OFFSET 8.82822 0.546677 1.51678
                CHANNELS 3 Zrotation Xrotation Yrotation
                JOINT lRing2
                {
                  OFFSET 2.60934 -0.819778 -0.0198488
                  CHANNELS 3 Zrotation Xrotation Yrotation
                  End Site
                  {
                    OFFSET 2.33842 -0.294052 0.168128
                  }
                }
              }
              JOINT lPinky1
              {
                OFFSET 8.27202 -0.0477905 -0.4584
                CHANNELS 3 Zrotation Xrotation Yrotation
                JOINT lPinky2
                {
                  OFFSET 1.82734 -0.647385 -0.700984
                  CHANNELS 3 Zrotation Xrotation Yrotation
                  End Site
                  {
                    OFFSET 1.69225 -0.51767 -0.607171
                  }
                }
              }
            }
          }
        }
      }
    }
  }
  JOINT rButtock
  {
    OFFSET -8.77824 4.35084 1.2192
    CHANNELS 3 Zrotation Xrotation Yrotation
    JOINT rThigh
    {
      OFFSET 0 -1.70687 -2.19456
      CHANNELS 3 Zrotation Xrotation Yrotation
      JOINT rShin
      {
        OFFSET 0 -36.8199 0.73152
        CHANNELS 3 Zrotation Xrotation Yrotation
        JOINT rFoot
        {
          OFFSET 0.73152 -45.1104 -5.12064
          CHANNELS 3 Zrotation Xrotation Yrotation
          End Site
          {
            OFFSET -1.1221 -3.69964 12.103
          }
        }
      }
    }
  }
  JOINT lButtock
  {
    OFFSET 8.77824 4.35084 1.2192
    CHANNELS 3 Zrotation Xrotation Yrotation
    JOINT lThigh
    {
      OFFSET 0 -1.70687 -2.19456
      CHANNELS 3 Zrotation Xrotation Yrotation
      JOINT lShin
      {
        OFFSET 0 -36.8199 0.73152
        CHANNELS 3 Zrotation Xrotation Yrotation
        JOINT lFoot
        {
          OFFSET -0.73152 -45.1104 -5.12064
          CHANNELS 3 Zrotation Xrotation Yrotation
          End Site
          {
            OFFSET 1.1221 -3.69964 12.103
          }
        }
      }
    }
  }
}
MOTION
Frames:	4
Frame Time:	0.03333
2.4974657265710754 50.06115435174561 -27.822211689539078 67.41197967529297 43.423500061035156 73.50098419189453 -27.86029624938965 22.303598403930664 10.547200202941895 -7.115669250488281 -10.891799926757812 1.3810700178146362 -0.2797567546367645 10.944099426269531 9.234009742736816 -18.439998626708984 -22.304298400878906 15.590897560119629 -0.0 0.0 -0.0 -0.0 0.0 -0.0 8.905552619127566e-14 1.978304889696525e-12 -2.7352767403496236e-13 -9.658946990966797 53.93119812011719 56.48729705810547 -28.275602340698242 -38.57419967651367 81.40269470214844 -0.03205219283699989 5.190069675445557 0.7314949631690979 -4.510662329759718e-11 -3.5661013031429434e-10 -1.0436608244290824e-09 -7.975558408146455e-11 -6.117796824689492e-10 -1.8044176153253488e-09 -4.509390083562437e-11 -3.566228423679263e-10 -1.0436925768075866e-09 7.7309088706970215 5.474880218505859 0.41731396317481995 -4.510662329759718e-11 -3.5661013031429434e-10 -1.0436671527003227e-09 2.9055399894714355 0.9651829600334167 0.10290198773145676 -4.510026380133425e-11 -3.5661013031429434e-10 -1.0436608244290824e-09 10.27859878540039 0.73180091381073 0.025912299752235413 -4.510662329759718e-11 -3.5661013031429434e-10 -1.0436608244290824e-09 2.2216696739196777 -0.7334870100021362 -0.2089199721813202 8.905552619127566e-14 1.978304889696525e-12 -2.7352767403496236e-13 -53.19409942626953 -21.876298904418945 15.31579875946045 15.822699546813965 -8.514589309692383 -29.340599060058594 0.1831960678100586 -13.088199615478516 1.8669298887252808 -1.2135787930134256e-09 -4.722519264532821e-09 -2.9810701129839856e-10 -2.0963797364714765e-09 -8.338701285026673e-09 -5.40840594531744e-10 -1.2135787930134256e-09 -4.722519264532821e-09 -2.980942992447666e-10 -7.7309088706970215 5.474880218505859 -0.41731396317481995 -1.2135787930134256e-09 -4.7225316990306965e-09 -2.9811336732521454e-10 -2.9055399894714355 0.9651829600334167 -0.10290198773145676 -1.2135787930134256e-09 -4.722519264532821e-09 -2.9811336732521454e-10 -10.27859878540039 0.73180091381073 -0.025912299752235413 -1.2135787930134256e-09 -4.722512603194673e-09 -2.981197233520305e-10 -2.2216696739196777 -0.7334870100021362 0.2089199721813202 -0.0 0.0 -0.0 -43.80149841308594 -26.56199836730957 -10.192299842834473 -0.20669297873973846 28.588497161865234 0.49739596247673035 -2.1658596992492676 -7.089529991149902 -9.722999572753906 -0.0 0.0 -0.0 52.2494010925293 -3.218569755554199 4.274609565734863 0.04189589247107506 5.387599468231201 -0.5095118880271912 -3.28810977935791 7.559030532836914 31.489500045776367
2.2751581035074624 50.59463652215321 -28.62887896182812 67.41099548339844 43.19060134887695 73.67999267578125 -26.427295684814453 22.433101654052734 9.561470031738281 -7.15770959854126 -10.681900024414062 1.1312798261642456 0.29553112387657166 10.338199615478516 8.593729972839355 -19.33919906616211 -20.94580078125 14.322700500488281 -0.0 0.0 -0.0 -0.0 0.0 -0.0 -3.1805545068312735e-13 3.2250823105844928e-12 -6.488330922885255e-13 -11.56779956817627 52.99930191040039 59.162296295166016 -28.2919979095459 -38.41749954223633 81.1314926147461 -0.007143240422010422 2.673649787902832 0.3759849965572357 -5.441865291722081e-10 2.225478468176334e-09 6.645450856268553e-10 -9.364061748229346e-10 3.836066575502173e-09 1.147429595782512e-09 -5.441801453898165e-10 2.225478468176334e-09 6.645323180620721e-10 7.7309088706970215 5.474880218505859 0.41731396317481995 -5.441865291722081e-10 2.2254913467634196e-09 6.645450856268553e-10 2.9055399894714355 0.9651829600334167 0.10290198773145676 -5.441801453898165e-10 2.2254913467634196e-09 6.645450856268553e-10 10.27859878540039 0.73180091381073 0.025912299752235413 -5.441928574434485e-10 2.2254913467634196e-09 6.645514138980957e-10 2.2216696739196777 -0.7334870100021362 -0.2089199721813202 -3.1805545068312735e-13 3.2250823105844928e-12 -6.488330922885255e-13 -53.840396881103516 -27.90959930419922 17.620800018310547 14.101300239562988 -7.050269603729248 -25.73689842224121 -0.003200892824679613 -4.751929759979248 0.664828896522522 1.8352817043876257e-09 7.058381878977116e-09 -2.0565465996824628e-10 3.172622164981931e-09 1.2138700711261663e-08 -3.6644440259969713e-10 1.8352817043876257e-09 7.0583885403152635e-09 -2.056419340368265e-10 -7.7309088706970215 5.474880218505859 -0.41731396317481995 1.8352817043876257e-09 7.0583885403152635e-09 -2.0565465996824628e-10 -2.9055399894714355 0.9651829600334167 -0.10290198773145676 1.8352817043876257e-09 7.0583885403152635e-09 -2.0565465996824628e-10 -10.27859878540039 0.73180091381073 -0.025912299752235413 1.8352817043876257e-09 7.0583885403152635e-09 -2.0566101599506226e-10 -2.2216696739196777 -0.7334870100021362 0.2089199721813202 -0.0 0.0 -0.0 -43.95829772949219 -24.747499465942383 -8.445479393005371 -0.17542299628257751 24.840999603271484 0.42598697543144226 -2.2036194801330566 -5.221350193023682 -11.390700340270996 -0.0 0.0 -0.0 55.689002990722656 0.3633419871330261 6.07975959777832 0.0060922992415726185 -2.201509952545166 -0.2400679886341095 -3.801529884338379 9.617720603942871 24.83060073852539
1.9968725045024596 50.964938643100034 -29.607490857026097 68.89498901367188 43.15279769897461 75.72200775146484 -24.93189811706543 23.20439910888672 8.604400634765625 -6.62308931350708 -10.60789966583252 0.951495885848999 0.6278438568115234 10.09260082244873 8.06765079498291 -19.426401138305664 -20.818498611450195 13.221699714660645 -0.0 0.0 -0.0 -0.0 0.0 -0.0 -4.643609715498931e-13 3.409554322902908e-12 -7.76055326771885e-13 -12.439200401306152 52.34550094604492 60.944000244140625 -28.284597396850586 -38.49469757080078 81.26239776611328 -0.006839260458946228 2.5038399696350098 0.35207802057266235 -1.124109694217168e-09 3.7402494434957134e-09 1.270739624636974e-09 -1.9358508129840857e-09 6.451366996174102e-09 2.196700821244235e-09 -1.124109694217168e-09 3.740262322082799e-09 1.2707269680944933e-09 7.7309088706970215 5.474880218505859 0.41731396317481995 -1.124109694217168e-09 3.7402494434957134e-09 1.2707523922017572e-09 2.9055399894714355 0.9651829600334167 0.10290198773145676 -1.1240970376746873e-09 3.7402494434957134e-09 1.270739624636974e-09 10.27859878540039 0.73180091381073 0.025912299752235413 -1.1241224617819512e-09 3.7402494434957134e-09 1.2707523922017572e-09 2.2216696739196777 -0.7334870100021362 -0.2089199721813202 -4.643609715498931e-13 3.409554322902908e-12 -7.76055326771885e-13 -54.205692291259766 -33.71010208129883 19.16339874267578 12.875597953796387 -6.062499523162842 -23.359798431396484 0.021101897582411766 1.5614999532699585 -0.21669098734855652 2.8830708931337767e-09 1.2831196549711876e-08 5.850248618877174e-10 4.98733854215061e-09 2.218959593847103e-08 1.0074978629148745e-09 2.8830708931337767e-09 1.2831196549711876e-08 5.850311901589578e-10 -7.7309088706970215 5.474880218505859 -0.41731396317481995 2.8830708931337767e-09 1.2831196549711876e-08 5.850311901589578e-10 -2.9055399894714355 0.9651829600334167 -0.10290198773145676 2.8830708931337767e-09 1.2831196549711876e-08 5.850248618877174e-10 -10.27859878540039 0.73180091381073 -0.025912299752235413 2.883058236591296e-09 1.2831196549711876e-08 5.850184781053258e-10 -2.2216696739196777 -0.7334870100021362 0.2089199721813202 -0.0 0.0 -0.0 -43.9744987487793 -23.444900512695312 -6.0809102058410645 -0.1621060073375702 22.675901412963867 0.424968957901001 -2.331599712371826 -4.610380172729492 -13.556000709533691 -0.0 0.0 -0.0 58.58599853515625 -2.149359941482544 8.499040603637695 -0.03765059635043144 1.9079500436782837 -0.3176500201225281 -3.4770495891571045 10.199699401855469 20.917699813842773
1.82813642965721 51.06532193333171 -30.49500248948723 70.4339828491211 43.785301208496094 77.00299072265625 -23.340099334716797 24.621999740600586 7.6662492752075195 -5.513390064239502 -10.669798851013184 0.8414179682731628 0.7288820147514343 10.20949935913086 7.652968883514404 -18.780298233032227 -21.94099998474121 12.25719928741455 -0.0 0.0 -0.0 -0.0 0.0 -0.0 -3.3713879127664215e-13 2.525360346186667e-12 -6.615553374209049e-13 -12.353196144104004 52.01830291748047 61.92649459838867 -28.248998641967773 -38.80249786376953 81.80179595947266 -0.025233199819922447 4.68071985244751 0.6591929197311401 -1.7848699185307737e-09 4.187676871936219e-09 7.749293984282701e-10 -3.0780897830595677e-09 7.234132848310537e-09 1.3433898438108827e-09 -1.7848699185307737e-09 4.18770262911039e-09 7.749103025922466e-10 7.7309088706970215 5.474880218505859 0.41731396317481995 -1.7848699185307737e-09 4.187670654687281e-09 7.749230146458785e-10 2.9055399894714355 0.9651829600334167 0.10290198773145676 -1.7848699185307737e-09 4.187670654687281e-09 7.749230146458785e-10 10.27859878540039 0.73180091381073 0.025912299752235413 -1.7848826860955569e-09 4.187676871936219e-09 7.749230146458785e-10 2.2216696739196777 -0.7334870100021362 -0.2089199721813202 -3.3713879127664215e-13 2.525360346186667e-12 -6.615553374209049e-13 -54.62339401245117 -39.390201568603516 19.80729866027832 12.284697532653809 -5.642360210418701 -22.179000854492188 0.0645797923207283 5.8458099365234375 -0.8233299255371094 1.9297823339314846e-09 1.259610282744461e-08 2.0739314710027656e-09 3.347781607487832e-09 2.1813896466937877e-08 3.5810117093859617e-09 1.9297823339314846e-09 1.259610282744461e-08 2.0739314710027656e-09 -7.7309088706970215 5.474880218505859 -0.41731396317481995 1.9297823339314846e-09 1.259610282744461e-08 2.0739379102963085e-09 -2.9055399894714355 0.9651829600334167 -0.10290198773145676 1.9297823339314846e-09 1.259610282744461e-08 2.0739314710027656e-09 -10.27859878540039 0.73180091381073 -0.025912299752235413 1.9297823339314846e-09 1.259610282744461e-08 2.073918814460285e-09 -2.2216696739196777 -0.7334870100021362 0.2089199721813202 -0.0 0.0 -0.0 -43.829200744628906 -22.630502700805664 -3.0810599327087402 -0.15814198553562164 22.09309959411621 0.4893209636211395 -2.6763198375701904 -5.225109577178955 -16.222698211669922 -0.0 0.0 -0.0 61.80899429321289 -10.62279987335205 11.71150016784668 0.03982417285442352 17.714801788330078 -0.7768469452857971 -2.665839433670044 9.254199981689453 19.793498992919922
